<?xml version="1.0" encoding="utf-8"?>
<!-- Generator: Adobe Illustrator 21.1.0, SVG Export Plug-In . SVG Version: 6.00 Build 0)  -->
<svg version="1.1" id="Capa_1" xmlns="http://www.w3.org/2000/svg" xmlns:xlink="http://www.w3.org/1999/xlink" x="0px" y="0px"
	 viewBox="0 0 618 172.5" style="enable-background:new 0 0 618 172.5;" xml:space="preserve">
<style type="text/css">
	.st0{fill-rule:evenodd;clip-rule:evenodd;fill:#FFFFFF;}
	.st1{fill-rule:evenodd;clip-rule:evenodd;fill:#B5322D;}
	.st2{fill:#FFFFFF;}
	.st3{fill:#B5322D;}
</style>
<g>
	<g>
		<g id="XMLID_7_">
			<polygon id="XMLID_9_" class="st0" points="138.2,0 166.1,0 166.1,21.3 162.9,21.3 162.9,43 166.1,46.1 174.8,46.1 178,43 
				178,21.3 174.8,21.3 174.8,0 202.7,0 202.7,21.3 199.4,21.3 199.4,53.6 184.5,68.4 184.5,68.5 184.4,68.5 156.5,68.5 156.4,68.5 
				156.4,68.4 141.5,53.6 141.5,21.3 138.2,21.3 138.2,0 			"/>
			<polygon id="XMLID_8_" class="st1" points="141.7,3.3 162.5,3.3 162.5,18 159.5,18 159.5,44 165.2,49.8 175.7,49.8 181.4,44 
				181.4,18 178.5,18 178.5,3.3 199.2,3.3 199.2,18 196.1,18 196.1,52 183,65.2 182.9,65.2 158,65.2 157.9,65.2 144.8,52 144.8,18 
				141.7,18 141.7,3.3 			"/>
		</g>
		<g>
			<path class="st2" d="M82.1,19.9V41h13.2v4.5h-18V19.9H82.1z"/>
			<path class="st2" d="M118.7,40.6h-13.4l-2.2,4.8h-5.2l11.5-25.6h5.3l11.5,25.6h-5.3L118.7,40.6z M112,25.2l-4.8,10.9h9.5
				L112,25.2z"/>
		</g>
		<g>
			<path class="st2" d="M239.5,32.4c0.1,6.5-3.8,13-12.8,13c-3.1,0-6.9,0-10.1,0V19.9c3.1,0,6.9,0,10.1,0
				C235.5,19.9,239.4,26.1,239.5,32.4z M221.5,40.8h5.3c5.8,0,8.1-4.2,8-8.4c-0.1-4-2.5-8-8-8h-5.3V40.8z"/>
			<path class="st2" d="M263.7,45.5h-19.2c0-8.5,0-17.1,0-25.6h19.2v4.7h-14.4v5.9h13.9v4.5h-13.9v5.8h14.4V45.5z"/>
			<path class="st2" d="M283.3,19.9V41h13.2v4.5h-18V19.9H283.3z"/>
			<path class="st2" d="M326.1,32.8C326,39.4,322,46.1,313,46.1c-9,0-13.2-6.5-13.2-13.2s4.3-13.5,13.2-13.5
				C321.8,19.3,326.2,26.1,326.1,32.8z M304.6,32.9c0.1,4.2,2.4,8.7,8.4,8.7s8.3-4.5,8.4-8.7c0.1-4.3-2.3-9.2-8.4-9.2
				S304.5,28.6,304.6,32.9z"/>
			<path class="st2" d="M348.1,26c-0.9-1.5-3.3-2.9-6.1-2.9c-3.6,0-5.3,1.5-5.3,3.4c0,2.2,2.6,2.9,5.7,3.2
				c5.3,0.7,10.3,2.1,10.3,8.2c0,5.7-5.1,8.2-10.8,8.2c-5.2,0-9.3-1.6-11.2-6.3l4-2.1c1.1,2.8,4.1,4.1,7.2,4.1c3,0,5.9-1.1,5.9-3.8
				c0-2.4-2.5-3.4-5.9-3.8c-5.2-0.6-10.1-2-10.1-7.8c0-5.3,5.2-7.4,9.9-7.5c4,0,8.1,1.1,10.1,5.1L348.1,26z"/>
			<path class="st2" d="M385,45.5V35.2h-12.6v10.4h-4.8V19.9h4.8v10.8H385V19.9h4.8v25.6H385z"/>
			<path class="st2" d="M396.2,45.5V19.9h4.8v25.6H396.2z"/>
			<path class="st2" d="M424.2,19.8h4.8v25.7h-3v0l-13.5-17.3v17.3h-4.8V19.9h3.9l12.6,15.9V19.8z"/>
			<path class="st2" d="M457.8,42.3c-2.6,2.6-6,3.8-9.7,3.8c-9.5,0-13.5-6.6-13.6-13.2c0-6.7,4.3-13.5,13.6-13.5
				c3.5,0,6.8,1.3,9.4,3.9l-3.2,3.1c-1.7-1.6-4-2.4-6.2-2.4c-6.2,0-8.9,4.6-8.8,8.9c0,4.2,2.5,8.7,8.8,8.7c2.2,0,4.8-0.9,6.4-2.6
				L457.8,42.3z"/>
			<path class="st2" d="M479.8,45.5V35.2h-12.6v10.4h-4.8V19.9h4.8v10.8h12.6V19.9h4.8v25.6H479.8z"/>
			<path class="st2" d="M509.2,40.6h-13.4l-2.2,4.8h-5.2l11.5-25.6h5.3l11.5,25.6h-5.3L509.2,40.6z M502.5,25.2l-4.8,10.9h9.5
				L502.5,25.2z"/>
			<path class="st2" d="M536.1,26c-0.9-1.5-3.3-2.9-6.1-2.9c-3.6,0-5.3,1.5-5.3,3.4c0,2.2,2.6,2.9,5.7,3.2
				c5.3,0.7,10.3,2.1,10.3,8.2c0,5.7-5.1,8.2-10.8,8.2c-5.2,0-9.3-1.6-11.2-6.3l4-2.1c1.1,2.8,4.1,4.1,7.2,4.1c3,0,5.9-1.1,5.9-3.8
				c0-2.4-2.5-3.4-5.9-3.8c-5.2-0.6-10.1-2-10.1-7.8c0-5.3,5.2-7.4,9.9-7.5c4,0,8.1,1.1,10.1,5.1L536.1,26z"/>
		</g>
	</g>
	<g>
		<g id="XMLID_4_">
			<polygon id="XMLID_6_" class="st0" points="60.9,104 88.8,104 88.8,125.3 85.6,125.3 85.6,147 88.8,150.1 97.5,150.1 100.7,147 
				100.7,125.3 97.5,125.3 97.5,104 125.4,104 125.4,125.3 122.1,125.3 122.1,157.6 107.2,172.4 107.2,172.5 107.1,172.5 
				79.2,172.5 79.1,172.5 79.1,172.4 64.2,157.6 64.2,125.3 60.9,125.3 60.9,104 			"/>
			<polygon id="XMLID_5_" class="st1" points="64.4,107.3 85.2,107.3 85.2,122 82.2,122 82.2,148 87.9,153.8 98.4,153.8 104.1,148 
				104.1,122 101.2,122 101.2,107.3 121.9,107.3 121.9,122 118.8,122 118.8,156 105.7,169.2 105.6,169.2 80.7,169.2 80.6,169.2 
				67.5,156 67.5,122 64.4,122 64.4,107.3 			"/>
		</g>
		<g>
			<path class="st2" d="M4.8,123.9V145H18v4.5H0v-25.6H4.8z"/>
			<path class="st2" d="M41.4,144.6H28l-2.2,4.8h-5.2l11.5-25.6h5.3l11.5,25.6h-5.3L41.4,144.6z M34.7,129.2L30,140.1h9.5
				L34.7,129.2z"/>
		</g>
		<g>
			<path class="st2" d="M168.6,136.4c0.1,6.5-3.8,13-12.8,13c-3.1,0-6.9,0-10.1,0v-25.6c3.1,0,6.9,0,10.1,0
				C164.5,123.9,168.5,130.1,168.6,136.4z M150.5,144.8h5.3c5.8,0,8.1-4.2,8-8.4c-0.1-4-2.5-8-8-8h-5.3V144.8z"/>
			<path class="st2" d="M192.7,149.5h-19.2c0-8.5,0-17.1,0-25.6h19.2v4.7h-14.4v5.9h13.9v4.5h-13.9v5.8h14.4V149.5z"/>
			<path class="st2" d="M214.1,128.2H206v-4.4c7.4,0,13.7,0,21.1,0v4.4h-8.1v21.2h-4.8V128.2z"/>
			<path class="st2" d="M257,136.8c-0.1,6.6-4.1,13.3-13.1,13.3s-13.2-6.5-13.2-13.2s4.3-13.5,13.2-13.5
				C252.7,123.3,257.1,130.1,257,136.8z M235.5,136.9c0.1,4.2,2.4,8.7,8.4,8.7s8.3-4.5,8.4-8.7c0.1-4.3-2.3-9.2-8.4-9.2
				S235.3,132.6,235.5,136.9z"/>
			<path class="st2" d="M285,136.4c0.1,6.5-3.8,13-12.8,13c-3.1,0-6.9,0-10.1,0v-25.6c3.1,0,6.9,0,10.1,0
				C280.9,123.9,284.8,130.1,285,136.4z M266.9,144.8h5.3c5.8,0,8.1-4.2,8-8.4c-0.1-4-2.5-8-8-8h-5.3V144.8z"/>
			<path class="st2" d="M315.5,136.8c-0.1,6.6-4.1,13.3-13.1,13.3s-13.2-6.5-13.2-13.2s4.3-13.5,13.2-13.5
				C311.2,123.3,315.6,130.1,315.5,136.8z M294,136.9c0.1,4.2,2.4,8.7,8.4,8.7s8.3-4.5,8.4-8.7c0.1-4.3-2.3-9.2-8.4-9.2
				S293.9,132.6,294,136.9z"/>
			<path class="st2" d="M337.4,130c-0.9-1.5-3.3-2.9-6.1-2.9c-3.6,0-5.3,1.5-5.3,3.4c0,2.2,2.6,2.9,5.7,3.2
				c5.3,0.7,10.3,2.1,10.3,8.2c0,5.7-5.1,8.2-10.8,8.2c-5.2,0-9.3-1.6-11.2-6.3l4-2.1c1.1,2.8,4.1,4.1,7.2,4.1c3,0,5.9-1.1,5.9-3.8
				c0-2.4-2.5-3.4-5.9-3.8c-5.2-0.6-10.1-2-10.1-7.8c0-5.3,5.2-7.4,9.9-7.5c4,0,8.1,1.1,10.1,5.1L337.4,130z"/>
			<path class="st2" d="M361.7,123.9V145h13.2v4.5h-18v-25.6H361.7z"/>
			<path class="st2" d="M404.6,136.8c-0.1,6.6-4.1,13.3-13.1,13.3s-13.2-6.5-13.2-13.2s4.3-13.5,13.2-13.5
				C400.2,123.3,404.6,130.1,404.6,136.8z M383,136.9c0.1,4.2,2.4,8.7,8.4,8.7s8.3-4.5,8.4-8.7c0.1-4.3-2.3-9.2-8.4-9.2
				S382.9,132.6,383,136.9z"/>
			<path class="st2" d="M426.5,130c-0.9-1.5-3.3-2.9-6.1-2.9c-3.6,0-5.3,1.5-5.3,3.4c0,2.2,2.6,2.9,5.7,3.2
				c5.3,0.7,10.3,2.1,10.3,8.2c0,5.7-5.1,8.2-10.8,8.2c-5.2,0-9.3-1.6-11.2-6.3l4-2.1c1.1,2.8,4.1,4.1,7.2,4.1c3,0,5.9-1.1,5.9-3.8
				c0-2.4-2.5-3.4-5.9-3.8c-5.2-0.6-10.1-2-10.1-7.8c0-5.3,5.2-7.4,9.9-7.5c4,0,8.1,1.1,10.1,5.1L426.5,130z"/>
			<path class="st2" d="M452.5,128.2h-8.1v-4.4c7.4,0,13.7,0,21.1,0v4.4h-8.1v21.2h-4.8V128.2z"/>
			<path class="st2" d="M470.3,149.5v-25.6h4.8v25.6H470.3z"/>
			<path class="st2" d="M500.6,149.5h-19.2c0-8.5,0-17.1,0-25.6h19.2v4.7h-14.4v5.9h13.9v4.5h-13.9v5.8h14.4V149.5z"/>
			<path class="st2" d="M528.5,130.9l-8.3,11.1h-1l-8.2-11.2v18.6h-4.8v-25.6h5.6l8,11l8-11h5.5v25.6h-4.8V130.9z"/>
			<path class="st2" d="M551.8,141.9h-7.2v7.5h-4.8v-25.6c4,0,8.1,0,12.1,0C564.3,123.8,564.3,141.9,551.8,141.9z M544.5,137.5h7.2
				c6.2,0,6.1-9.1,0-9.1h-7.2V137.5z"/>
			<path class="st2" d="M591.4,136.8c-0.1,6.6-4.1,13.3-13.1,13.3s-13.2-6.5-13.2-13.2s4.3-13.5,13.2-13.5
				C587.1,123.3,591.5,130.1,591.4,136.8z M569.9,136.9c0.1,4.2,2.4,8.7,8.4,8.7s8.3-4.5,8.4-8.7c0.1-4.3-2.3-9.2-8.4-9.2
				S569.8,132.6,569.9,136.9z"/>
			<path class="st2" d="M613.4,130c-0.9-1.5-3.3-2.9-6.1-2.9c-3.6,0-5.3,1.5-5.3,3.4c0,2.2,2.6,2.9,5.7,3.2
				c5.3,0.7,10.3,2.1,10.3,8.2c0,5.7-5.1,8.2-10.8,8.2c-5.2,0-9.3-1.6-11.2-6.3l4-2.1c1.1,2.8,4.1,4.1,7.2,4.1c3,0,5.9-1.1,5.9-3.8
				c0-2.4-2.5-3.4-5.9-3.8c-5.2-0.6-10.1-2-10.1-7.8c0-5.3,5.2-7.4,9.9-7.5c4,0,8.1,1.1,10.1,5.1L613.4,130z"/>
		</g>
	</g>
	<g>
		<path class="st3" d="M293,99.3h-5.2l-11-26.7h5.6l8,20.7l8-20.7h5.6L293,99.3z"/>
		<path class="st3" d="M325.4,79c-0.9-1.5-3.4-3-6.3-3c-3.7,0-5.5,1.6-5.5,3.5c0,2.3,2.7,3,5.9,3.3c5.5,0.7,10.7,2.1,10.7,8.5
			c0,5.9-5.2,8.5-11.2,8.5c-5.4,0-9.6-1.7-11.6-6.5l4.2-2.2c1.2,2.9,4.3,4.2,7.5,4.2c3.2,0,6.1-1.1,6.1-4c0-2.5-2.6-3.5-6.1-3.9
			c-5.4-0.6-10.4-2.1-10.4-8c0-5.5,5.4-7.7,10.3-7.7c4.1,0,8.4,1.2,10.4,5.3L325.4,79z"/>
	</g>
</g>
</svg>
