<?xml version="1.0" encoding="utf-8"?>
<!-- Generator: Adobe Illustrator 21.1.0, SVG Export Plug-In . SVG Version: 6.00 Build 0)  -->
<svg version="1.1" id="Capa_1" xmlns="http://www.w3.org/2000/svg" xmlns:xlink="http://www.w3.org/1999/xlink" x="0px" y="0px"
	 viewBox="0 0 700 50.5" style="enable-background:new 0 0 700 50.5;" xml:space="preserve">
<style type="text/css">
	.st0{fill:#FFFFFF;}
</style>
<g>
	<path class="st0" d="M24.2,1l-2.6,10.4h7.5L31.8,1H41l-2.6,10.4h5v8h-7L33.2,32h5.5v8.1h-7.3l-2.3,9.3h-9.3l2.3-9.3h-7.6l-2.3,9.3
		H3l2.3-9.3H0V32h7.3l3.2-12.7H4.8v-8h7.6L14.9,1H24.2z M19.2,18.8l-3.5,13.7h8.7L28,18.8H19.2z"/>
	<path class="st0" d="M72.8,21L85.7,1h11v0.4l-19.3,28v20h-9.1v-20l-18.6-28V1h10.9L72.8,21z"/>
	<path class="st0" d="M146.7,25.5c-0.1,12.5-7.8,25.1-24.8,25.1S97,38.3,97,25.5S105.1,0,121.9,0C138.6,0,146.9,12.8,146.7,25.5z
		 M106,25.7c0.2,8,4.5,16.5,15.9,16.5s15.7-8.6,15.8-16.5c0.1-8.2-4.4-17.3-15.8-17.3S105.8,17.5,106,25.7z"/>
	<path class="st0" d="M188.5,4.2H170V1h22.2v30.2c0,11.9-8.2,19-19.2,19c-11,0-19.1-7.8-19.1-19h3.5c0,9.2,6.7,15.6,15.6,15.6
		c8.9,0,15.5-5.5,15.5-15.6V4.2z"/>
	<path class="st0" d="M242.7,1v30.1c0,25.3-37.1,25.4-37.1,0V1h3.7v30.1c0,20.8,29.8,20.8,29.8,0V1H242.7z"/>
	<path class="st0" d="M259.8,23.3h28.4v3.4h-28.4v19.1h30.6v3.6h-34.3V1h33.4v3.5h-29.8V23.3z"/>
	<path class="st0" d="M338.1,9.9c-4.2-4.2-10.1-6.2-15.6-6.2c-14.2,0-21.5,10.4-21.4,21.6c0,11.4,7.3,21.2,21.4,21.2
		c5.2,0,10.6-1.8,14.7-5.6V27.3h-16.9v-3.3h20.4v18.1c-5.1,5.1-11.1,7.8-18.3,7.8c-16.5,0-25-11.5-25-24.7
		c-0.1-15.2,10.2-25.1,25-25.1c6.4,0,12.8,2.4,17.7,7.3L338.1,9.9z"/>
	<path class="st0" d="M399.7,25.3c-0.1,12.7-8.2,25-24.4,25c-16.3,0-24.4-12.3-24.4-25.1c0-13,8.1-24.9,24.4-24.9
		C391.6,0.2,399.8,12.2,399.7,25.3z M354.5,25.2c0.1,10.9,7,21.6,20.8,21.6c13.8,0,20.8-10.7,20.8-21.6c0-11.2-6.9-21.5-20.8-21.5
		C361.4,3.7,354.4,13.8,354.5,25.2z"/>
	<path class="st0" d="M433.6,35.2h-13.7v14.3h-9.1V1c7.6,0,15.2-0.1,22.8-0.1C457.3,0.9,457.3,35.2,433.6,35.2z M419.9,26.8h13.7
		c11.7,0,11.6-17.2,0-17.2h-13.7V26.8z"/>
	<path class="st0" d="M507.5,25.5c-0.1,12.5-7.8,25.1-24.8,25.1c-17,0-24.9-12.2-24.9-25S465.9,0,482.7,0
		C499.3,0,507.6,12.8,507.5,25.5z M466.7,25.7c0.2,8,4.5,16.5,15.9,16.5s15.7-8.6,15.8-16.5c0.1-8.2-4.4-17.3-15.8-17.3
		S466.5,17.5,466.7,25.7z"/>
	<path class="st0" d="M559.8,49.4H549l-14.1-16.2h-8.8v16.2h-9.1V0.9c7.7,0,15.4,0.1,23,0.1C551.4,1,557.4,8.7,557.4,17
		c0,6.6-3,13.4-12.2,15.2l14.7,16.5V49.4z M526.1,9.5V25H540c5.8,0,8.3-3.9,8.3-7.8s-2.6-7.8-8.3-7.8H526.1z"/>
	<path class="st0" d="M571.1,1v44.9h27.3v3.5h-31V1H571.1z"/>
	<path class="st0" d="M648.6,49.4l-5.3-11.9h-28.9l-5.3,11.9h-4L626.8,1h4.1l21.7,48.4H648.6z M641.8,34.1l-13-29.5l-13,29.5H641.8z
		"/>
	<path class="st0" d="M700,1v27.8c0,14.3-8.8,21.7-21,21.7c-11.6,0-21.5-7.1-21.5-21.7V1h9.1v27.8c0,8.7,5,13.4,12.5,13.4
		c7.5,0,11.8-5.1,11.8-13.4V1H700z"/>
</g>
</svg>
