<?xml version="1.0" encoding="utf-8"?>
<!-- Generator: Adobe Illustrator 21.1.0, SVG Export Plug-In . SVG Version: 6.00 Build 0)  -->
<svg version="1.1" id="Capa_1" xmlns="http://www.w3.org/2000/svg" xmlns:xlink="http://www.w3.org/1999/xlink" x="0px" y="0px"
	 viewBox="0 0 76.2 100" style="enable-background:new 0 0 76.2 100;" xml:space="preserve">
<style type="text/css">
	.st0{fill:#313677;}
	.st1{fill:#FFFFFF;}
	.st2{fill:#AE2E2B;}
</style>
<g>
	<g id="XMLID_4_">
		<path id="XMLID_28_" class="st0" d="M38.1,100c-8-3.9-16.3-10-22.9-17.1C9.3,76.6,4.7,69.2,2.1,60.4C1,56.7,0.3,52.8,0,48.6
			c3.1-1.8,10.1-5.3,12.6-11.6l0,0l4.5,0l0,0c-1.6-0.9-6-5.9-5.9-12.2c0.1-8,4.8-10.4,4.7-17c0-2.2-0.3-4.8-1.8-7.9
			c3.2,1.5,5.3,2.8,9.9,2.8c5.5,0,7.1-2.2,14.1-2.3c6.9,0.1,8.6,2.3,14.1,2.3c4.6,0,6.8-1.3,9.9-2.8c-1.5,3.1-1.8,5.7-1.8,7.9
			c-0.1,6.6,4.6,9,4.7,17c0.1,6.2-4.3,11.3-5.9,12.2l0,0l4.5,0l0,0c2.5,6.3,9.5,9.8,12.6,11.6c-0.3,4.2-1,8.1-2.1,11.8
			c-2.6,8.8-7.2,16.1-13.2,22.5C54.4,90,46.1,96.1,38.1,100L38.1,100z"/>
		<path id="XMLID_13_" class="st1" d="M38.1,97.9C27.6,92.2,17.2,84,10.3,73.6c-4.6-6.9-7.6-14.9-8.2-23.8c2.9-1.7,9-4.8,11.7-10.9
			l0,0l3.6,0l1.4-1.3l0-1.6l0,0c-1.6-0.9-5.8-5.5-5.7-11.5c0.1-6.4,4.7-9.7,4.7-16.6c0-0.8,0-2.8-0.4-4.4c2.2,0.9,4.8,1.2,6.9,1.2
			c4.9,0,9-2.3,13.8-2.3c4.9,0,8.9,2.3,13.8,2.3c2,0,4.6-0.3,6.9-1.2c-0.4,1.6-0.4,3.6-0.4,4.4c0,6.9,4.6,10.1,4.7,16.6
			c0.1,5.9-4.1,10.6-5.7,11.5l0,0l0,1.6l1.4,1.3l3.6,0l0,0c2.7,6,8.8,9.2,11.7,10.9c-0.6,8.9-3.6,16.9-8.2,23.8
			C59,84,48.7,92.2,38.1,97.9L38.1,97.9z"/>
		<path id="XMLID_11_" class="st0" d="M38.1,94.7c-9.6-5-19.3-13-25.8-23.1c-4-6.2-6.7-13.1-7.4-20.5c1.7-0.9,6.6-3.4,10-8.8l0,0
			l23.2,5.3l23.2-5.3l0,0c3.4,5.4,8.3,7.9,10,8.8C69.5,70.8,53.5,86.7,38.1,94.7L38.1,94.7z"/>
		<path id="XMLID_10_" class="st1" d="M39.8,50.1l0,7.4c0,0,2.3,0,3.1,0c0,1.2,0,16.3,0,16.3c0,1-0.3,1.8-0.8,2.3
			c-0.6,0.6-1.4,0.8-2.5,0.8l-3,0c-1.1,0-1.9-0.3-2.5-0.8c-0.5-0.5-0.8-1.3-0.8-2.3c0,0,0-15.1,0-16.3c0.8,0,3.1,0,3.1,0l0-8
			l-17.5,0v8c0,0,2.6,0,3.4,0c0,1.2,0,19.6,0,19.6l9,8.8l13.4,0l9-8.8c0,0,0-18.4,0-19.6c0.9,0,3.4,0,3.4,0v-8l-17.5,0L39.8,50.1z"
			/>
		<path id="XMLID_9_" class="st2" d="M38.1,14.6c-5.8-4.1-10.4-5.5-14.4-6C26.9,6.3,33,4,38.1,4.2C43.3,4,49.3,6.3,52.5,8.6
			C48.5,9.1,44,10.5,38.1,14.6L38.1,14.6z"/>
		<path id="XMLID_8_" class="st2" d="M38.1,41.9l-9.5-2.2l0,0c1.6-1,4.7-5.3,4.5-9.7c-2.2,1.6-5,2.6-7.8,2.6c-4.6,0-8.8-2.5-8.8-8.4
			c0-5.2,4.3-6.6,4.2-11.1c0-0.7-0.1-1.6-0.4-2.5c8.3-0.2,13.9,3.9,17.9,8.2c4-4.3,9.6-8.4,17.9-8.2c-0.3,0.9-0.4,1.8-0.4,2.5
			c-0.1,4.5,4.2,5.8,4.2,11.1c0,5.9-4.2,8.4-8.8,8.4c-2.7,0-5.5-1-7.8-2.6c-0.2,4.4,2.9,8.7,4.5,9.7l0,0L38.1,41.9L38.1,41.9z"/>
		<path id="XMLID_7_" class="st1" d="M27.3,17.6c3.1,0,5.6,2.4,5.6,5.4c0,3-2.5,5.4-5.6,5.4c-3.1,0-5.6-2.4-5.6-5.4
			C21.7,20,24.2,17.6,27.3,17.6L27.3,17.6z"/>
		<path id="XMLID_6_" class="st1" d="M49,17.6c-3.1,0-5.6,2.4-5.6,5.4c0,3,2.5,5.4,5.6,5.4c3.1,0,5.6-2.4,5.6-5.4
			C54.5,20,52,17.6,49,17.6L49,17.6z"/>
		<polygon id="XMLID_5_" class="st2" points="38.1,43.2 19.5,38.9 18.3,40.1 16.6,40.1 15.9,41.1 38.1,46.1 60.3,41.1 59.6,40.1 
			58,40.1 56.7,38.9 38.1,43.2 		"/>
	</g>
</g>
</svg>
