<?xml version="1.0" encoding="utf-8"?>
<!-- Generator: Adobe Illustrator 21.1.0, SVG Export Plug-In . SVG Version: 6.00 Build 0)  -->
<svg version="1.1" id="Capa_1" xmlns="http://www.w3.org/2000/svg" xmlns:xlink="http://www.w3.org/1999/xlink" x="0px" y="0px"
	 viewBox="0 0 850 29" style="enable-background:new 0 0 850 29;" xml:space="preserve">
<style type="text/css">
	.st0{fill:#FFFFFF;}
	.st1{fill-rule:evenodd;clip-rule:evenodd;fill:#FFFFFF;}
	.st2{fill-rule:evenodd;clip-rule:evenodd;fill:#B4322D;}
	.st3{fill:#B4322D;}
</style>
<g>
	<g>
		<g>
			<path class="st0" d="M462.2,4.3v13.8h8.6V21H459V4.3H462.2z"/>
			<path class="st0" d="M486,17.9h-8.7l-1.4,3.1h-3.4l7.5-16.7h3.4l7.5,16.7h-3.4L486,17.9z M481.6,7.8l-3.1,7.1h6.2L481.6,7.8z"/>
		</g>
		<g>
			<path class="st0" d="M556.9,12.5c0.1,4.2-2.5,8.5-8.3,8.5c-2,0-4.5,0-6.5,0V4.3c2,0,4.5,0,6.5,0C554.3,4.3,556.9,8.4,556.9,12.5z
				 M545.2,18h3.4c3.8,0,5.3-2.8,5.2-5.5c-0.1-2.6-1.6-5.2-5.2-5.2h-3.4V18z"/>
			<path class="st0" d="M572.6,21h-12.5c0-5.5,0-11.1,0-16.7h12.5v3h-9.4v3.8h9v2.9h-9v3.8h9.4V21z"/>
			<path class="st0" d="M586.6,7.2h-5.3V4.3c4.8,0,8.9,0,13.7,0v2.9h-5.3V21h-3.1V7.2z"/>
			<path class="st0" d="M614.5,12.8c0,4.3-2.7,8.6-8.5,8.6s-8.6-4.2-8.6-8.6s2.8-8.8,8.6-8.8C611.7,4,614.5,8.4,614.5,12.8z
				 M600.4,12.8c0.1,2.7,1.5,5.7,5.5,5.7s5.4-3,5.5-5.7c0-2.8-1.5-6-5.5-6S600.4,10,600.4,12.8z"/>
			<path class="st0" d="M632.6,12.5c0.1,4.2-2.5,8.5-8.3,8.5c-2,0-4.5,0-6.5,0V4.3c2,0,4.5,0,6.5,0C630,4.3,632.6,8.4,632.6,12.5z
				 M620.9,18h3.4c3.8,0,5.3-2.8,5.2-5.5c-0.1-2.6-1.6-5.2-5.2-5.2h-3.4V18z"/>
			<path class="st0" d="M652.5,12.8c0,4.3-2.7,8.6-8.5,8.6c-5.9,0-8.6-4.2-8.6-8.6S638.2,4,644,4C649.7,4,652.6,8.4,652.5,12.8z
				 M638.5,12.8c0.1,2.7,1.5,5.7,5.5,5.7c3.9,0,5.4-3,5.5-5.7c0-2.8-1.5-6-5.5-6C640,6.9,638.4,10,638.5,12.8z"/>
			<path class="st0" d="M666.8,8.4c-0.6-1-2.1-1.9-4-1.9c-2.3,0-3.5,1-3.5,2.2c0,1.5,1.7,1.9,3.7,2.1c3.5,0.4,6.7,1.3,6.7,5.3
				c0,3.7-3.3,5.3-7,5.3c-3.4,0-6-1-7.3-4.1l2.6-1.4c0.7,1.8,2.7,2.6,4.7,2.6c2,0,3.8-0.7,3.8-2.5c0-1.6-1.6-2.2-3.9-2.5
				c-3.4-0.4-6.5-1.3-6.5-5c0-3.4,3.4-4.8,6.5-4.9c2.6,0,5.3,0.7,6.5,3.3L666.8,8.4z"/>
			<path class="st0" d="M682.6,4.3v13.8h8.6V21h-11.7V4.3H682.6z"/>
			<path class="st0" d="M710.4,12.8c0,4.3-2.7,8.6-8.5,8.6s-8.6-4.2-8.6-8.6s2.8-8.8,8.6-8.8C707.6,4,710.5,8.4,710.4,12.8z
				 M696.4,12.8c0.1,2.7,1.5,5.7,5.5,5.7s5.4-3,5.5-5.7c0-2.8-1.5-6-5.5-6S696.3,10,696.4,12.8z"/>
			<path class="st0" d="M724.7,8.4c-0.6-1-2.1-1.9-4-1.9c-2.3,0-3.5,1-3.5,2.2c0,1.5,1.7,1.9,3.7,2.1c3.5,0.4,6.7,1.3,6.7,5.3
				c0,3.7-3.3,5.3-7,5.3c-3.4,0-6-1-7.3-4.1l2.6-1.4c0.7,1.8,2.7,2.6,4.7,2.6c2,0,3.8-0.7,3.8-2.5c0-1.6-1.6-2.2-3.9-2.5
				c-3.4-0.4-6.5-1.3-6.5-5c0-3.4,3.4-4.8,6.5-4.9c2.6,0,5.3,0.7,6.5,3.3L724.7,8.4z"/>
			<path class="st0" d="M748.7,21v-6.7h-8.2V21h-3.1V4.4h3.1v7h8.2v-7h3.1V21H748.7z"/>
			<path class="st0" d="M756,21V4.3h3.1V21H756z"/>
			<path class="st0" d="M774.2,4.3h3.1V21h-2v0l-8.8-11.3V21h-3.1V4.3h2.5l8.2,10.3V4.3z"/>
			<path class="st0" d="M796.1,18.9c-1.7,1.7-3.9,2.5-6.3,2.5c-6.2,0-8.8-4.3-8.8-8.6c0-4.4,2.8-8.8,8.8-8.8c2.3,0,4.4,0.9,6.1,2.5
				l-2.1,2c-1.1-1.1-2.6-1.6-4-1.6c-4,0-5.8,3-5.7,5.8c0,2.8,1.6,5.6,5.7,5.6c1.5,0,3.1-0.6,4.2-1.7L796.1,18.9z"/>
			<path class="st0" d="M810.4,21v-6.7h-8.2V21h-3.1V4.4h3.1v7h8.2v-7h3.1V21H810.4z"/>
			<path class="st0" d="M829.5,17.9h-8.7l-1.4,3.1H816l7.5-16.7h3.4l7.5,16.7h-3.4L829.5,17.9z M825.1,7.8l-3.1,7.1h6.2L825.1,7.8z"
				/>
			<path class="st0" d="M847,8.4c-0.6-1-2.1-1.9-4-1.9c-2.3,0-3.5,1-3.5,2.2c0,1.5,1.7,1.9,3.7,2.1c3.5,0.4,6.7,1.3,6.7,5.3
				c0,3.7-3.3,5.3-7,5.3c-3.4,0-6-1-7.3-4.1l2.6-1.4c0.7,1.8,2.7,2.6,4.7,2.6c2,0,3.8-0.7,3.8-2.5c0-1.6-1.6-2.2-3.9-2.5
				c-3.4-0.4-6.5-1.3-6.5-5c0-3.4,3.4-4.8,6.5-4.9c2.6,0,5.3,0.7,6.5,3.3L847,8.4z"/>
		</g>
		<g id="XMLID_36_">
			<polygon id="XMLID_38_" class="st1" points="501.9,0.1 513.7,0.1 513.7,9.1 512.4,9.1 512.4,18.2 513.7,19.6 517.4,19.6 
				518.7,18.2 518.7,9.1 517.4,9.1 517.4,0.1 529.2,0.1 529.2,9.1 527.8,9.1 527.8,22.7 521.5,29 521.5,29 521.4,29 509.6,29 
				509.6,29 509.6,29 503.3,22.7 503.3,9.1 501.9,9.1 501.9,0.1 			"/>
			<polygon id="XMLID_37_" class="st2" points="503.4,1.5 512.2,1.5 512.2,7.7 510.9,7.7 510.9,18.7 513.3,21.1 517.8,21.1 
				520.2,18.7 520.2,7.7 518.9,7.7 518.9,1.5 527.7,1.5 527.7,7.7 526.4,7.7 526.4,22 520.8,27.6 520.8,27.6 510.3,27.6 510.2,27.6 
				504.7,22 504.7,7.7 503.4,7.7 503.4,1.5 			"/>
		</g>
	</g>
	<g>
		<g id="XMLID_33_">
			<polygon id="XMLID_35_" class="st1" points="41.8,0 53.5,0 53.5,9 52.2,9 52.2,18.2 53.5,19.5 57.2,19.5 58.6,18.2 58.6,9 
				57.2,9 57.2,0 69,0 69,9 67.6,9 67.6,22.6 61.3,28.9 61.3,29 61.3,29 49.5,29 49.4,29 49.4,28.9 43.2,22.6 43.2,9 41.8,9 41.8,0 
							"/>
			<polygon id="XMLID_34_" class="st2" points="43.2,1.4 52,1.4 52,7.6 50.7,7.6 50.7,18.6 53.2,21 57.6,21 60,18.6 60,7.6 
				58.8,7.6 58.8,1.4 67.6,1.4 67.6,7.6 66.2,7.6 66.2,22 60.7,27.6 60.7,27.6 50.1,27.6 50.1,27.6 44.6,22 44.6,7.6 43.2,7.6 
				43.2,1.4 			"/>
		</g>
		<g>
			<path class="st0" d="M3.1,5.1v13.8h8.6v2.9H0V5.1H3.1z"/>
			<path class="st0" d="M27,18.6h-8.7l-1.4,3.1h-3.4l7.5-16.7h3.4l7.5,16.7h-3.4L27,18.6z M22.6,8.6l-3.1,7.1h6.2L22.6,8.6z"/>
		</g>
		<g>
			<path class="st0" d="M96,13.3c0.1,4.2-2.5,8.5-8.3,8.5c-2,0-4.5,0-6.5,0V5.1c2,0,4.5,0,6.5,0C93.4,5.1,95.9,9.2,96,13.3z
				 M84.2,18.7h3.4c3.8,0,5.3-2.8,5.2-5.5c-0.1-2.6-1.6-5.2-5.2-5.2h-3.4V18.7z"/>
			<path class="st0" d="M111.7,21.8H99.2c0-5.5,0-11.1,0-16.7h12.5v3h-9.4V12h9v2.9h-9v3.8h9.4V21.8z"/>
			<path class="st0" d="M125.6,8h-5.3V5.1c4.8,0,8.9,0,13.7,0V8h-5.3v13.8h-3.1V8z"/>
			<path class="st0" d="M153.5,13.5c0,4.3-2.7,8.6-8.5,8.6c-5.9,0-8.6-4.2-8.6-8.6s2.8-8.8,8.6-8.8C150.7,4.8,153.6,9.2,153.5,13.5z
				 M139.5,13.6c0.1,2.7,1.5,5.7,5.5,5.7s5.4-3,5.5-5.7c0-2.8-1.5-6-5.5-6S139.4,10.8,139.5,13.6z"/>
			<path class="st0" d="M171.7,13.3c0.1,4.2-2.5,8.5-8.3,8.5c-2,0-4.5,0-6.5,0V5.1c2,0,4.5,0,6.5,0C169.1,5.1,171.6,9.2,171.7,13.3z
				 M159.9,18.7h3.4c3.8,0,5.3-2.8,5.2-5.5c-0.1-2.6-1.6-5.2-5.2-5.2h-3.4V18.7z"/>
			<path class="st0" d="M191.6,13.5c0,4.3-2.7,8.6-8.5,8.6s-8.6-4.2-8.6-8.6s2.8-8.8,8.6-8.8C188.7,4.8,191.6,9.2,191.6,13.5z
				 M177.5,13.6c0.1,2.7,1.5,5.7,5.5,5.7s5.4-3,5.5-5.7c0-2.8-1.5-6-5.5-6S177.5,10.8,177.5,13.6z"/>
			<path class="st0" d="M205.8,9.1c-0.6-1-2.1-1.9-4-1.9c-2.3,0-3.5,1-3.5,2.2c0,1.5,1.7,1.9,3.7,2.1c3.5,0.4,6.7,1.3,6.7,5.3
				c0,3.7-3.3,5.3-7,5.3c-3.4,0-6-1-7.3-4.1l2.6-1.4c0.7,1.8,2.7,2.6,4.7,2.6c2,0,3.8-0.7,3.8-2.5c0-1.6-1.6-2.2-3.9-2.5
				c-3.4-0.4-6.5-1.3-6.5-5c0-3.4,3.4-4.8,6.5-4.9c2.6,0,5.3,0.7,6.5,3.3L205.8,9.1z"/>
			<path class="st0" d="M221.6,5.1v13.8h8.6v2.9h-11.7V5.1H221.6z"/>
			<path class="st0" d="M249.5,13.5c0,4.3-2.7,8.6-8.5,8.6c-5.9,0-8.6-4.2-8.6-8.6s2.8-8.8,8.6-8.8C246.6,4.8,249.5,9.2,249.5,13.5z
				 M235.4,13.6c0.1,2.7,1.5,5.7,5.5,5.7s5.4-3,5.5-5.7c0-2.8-1.5-6-5.5-6S235.4,10.8,235.4,13.6z"/>
			<path class="st0" d="M263.7,9.1c-0.6-1-2.1-1.9-4-1.9c-2.3,0-3.5,1-3.5,2.2c0,1.5,1.7,1.9,3.7,2.1c3.5,0.4,6.7,1.3,6.7,5.3
				c0,3.7-3.3,5.3-7,5.3c-3.4,0-6-1-7.3-4.1l2.6-1.4c0.7,1.8,2.7,2.6,4.7,2.6c2,0,3.8-0.7,3.8-2.5c0-1.6-1.6-2.2-3.9-2.5
				c-3.4-0.4-6.5-1.3-6.5-5c0-3.4,3.4-4.8,6.5-4.9c2.6,0,5.3,0.7,6.5,3.3L263.7,9.1z"/>
			<path class="st0" d="M280.7,8h-5.3V5.1c4.8,0,8.9,0,13.7,0V8h-5.3v13.8h-3.1V8z"/>
			<path class="st0" d="M292.2,21.8V5.1h3.1v16.7H292.2z"/>
			<path class="st0" d="M311.9,21.8h-12.5c0-5.5,0-11.1,0-16.7h12.5v3h-9.4V12h9v2.9h-9v3.8h9.4V21.8z"/>
			<path class="st0" d="M330.1,9.7l-5.4,7.2H324l-5.3-7.3v12.1h-3.1V5.1h3.6l5.2,7.2l5.2-7.2h3.6v16.7h-3.1V9.7z"/>
			<path class="st0" d="M345.2,16.9h-4.7v4.9h-3.1V5.1c2.6,0,5.2,0,7.9,0C353.3,5.1,353.4,16.9,345.2,16.9z M340.5,14h4.7
				c4,0,4-5.9,0-5.9h-4.7V14z"/>
			<path class="st0" d="M371,13.5c0,4.3-2.7,8.6-8.5,8.6c-5.9,0-8.6-4.2-8.6-8.6s2.8-8.8,8.6-8.8C368.2,4.8,371.1,9.2,371,13.5z
				 M357,13.6c0.1,2.7,1.5,5.7,5.5,5.7c3.9,0,5.4-3,5.5-5.7c0-2.8-1.5-6-5.5-6C358.5,7.6,356.9,10.8,357,13.6z"/>
			<path class="st0" d="M385.3,9.1c-0.6-1-2.1-1.9-4-1.9c-2.3,0-3.5,1-3.5,2.2c0,1.5,1.7,1.9,3.7,2.1c3.5,0.4,6.7,1.3,6.7,5.3
				c0,3.7-3.3,5.3-7,5.3c-3.4,0-6-1-7.3-4.1l2.6-1.4c0.7,1.8,2.7,2.6,4.7,2.6c2,0,3.8-0.7,3.8-2.5c0-1.6-1.6-2.2-3.9-2.5
				c-3.4-0.4-6.5-1.3-6.5-5c0-3.4,3.4-4.8,6.5-4.9c2.6,0,5.3,0.7,6.5,3.3L385.3,9.1z"/>
		</g>
	</g>
	<g>
		<path class="st3" d="M414.4,23.3h-3.7l-8-19.2h4l5.8,14.9l5.8-14.9h4L414.4,23.3z"/>
		<path class="st3" d="M437.7,8.7c-0.7-1.1-2.5-2.1-4.5-2.1c-2.7,0-4,1.1-4,2.5c0,1.7,2,2.1,4.3,2.4c4,0.5,7.7,1.5,7.7,6.1
			c0,4.3-3.8,6.1-8,6.1c-3.9,0-6.9-1.2-8.3-4.7l3-1.6c0.8,2.1,3.1,3,5.4,3c2.3,0,4.4-0.8,4.4-2.9c0-1.8-1.9-2.5-4.4-2.8
			c-3.9-0.5-7.5-1.5-7.5-5.8c0-3.9,3.9-5.5,7.4-5.6c3,0,6.1,0.8,7.5,3.8L437.7,8.7z"/>
	</g>
</g>
</svg>
